<mxfile host="app.diagrams.net" modified="2024-05-18T19:20:35.856Z" agent="Mozilla/5.0 (Windows NT 10.0; Win64; x64) AppleWebKit/537.36 (KHTML, like Gecko) Chrome/125.0.0.0 Safari/537.36" etag="hNoY3qtcXsnpPSuL94wP" version="24.4.4" type="device">
  <diagram name="Page-1" id="N28bqmTFyhz6pplvEkUL">
    <mxGraphModel dx="1128" dy="743" grid="1" gridSize="10" guides="1" tooltips="1" connect="1" arrows="1" fold="1" page="1" pageScale="1" pageWidth="827" pageHeight="1169" math="0" shadow="0">
      <root>
        <mxCell id="0" />
        <mxCell id="1" parent="0" />
        <mxCell id="0KsfwF-BBP8w_LCdqewA-60" style="edgeStyle=orthogonalEdgeStyle;rounded=0;orthogonalLoop=1;jettySize=auto;html=1;entryX=1;entryY=0.5;entryDx=0;entryDy=0;" edge="1" parent="1" source="0KsfwF-BBP8w_LCdqewA-14" target="0KsfwF-BBP8w_LCdqewA-37">
          <mxGeometry relative="1" as="geometry" />
        </mxCell>
        <mxCell id="0KsfwF-BBP8w_LCdqewA-61" style="edgeStyle=orthogonalEdgeStyle;rounded=0;orthogonalLoop=1;jettySize=auto;html=1;entryX=1;entryY=0.5;entryDx=0;entryDy=0;" edge="1" parent="1" source="0KsfwF-BBP8w_LCdqewA-14" target="0KsfwF-BBP8w_LCdqewA-39">
          <mxGeometry relative="1" as="geometry" />
        </mxCell>
        <mxCell id="0KsfwF-BBP8w_LCdqewA-14" value="user" style="whiteSpace=wrap;html=1;align=center;" vertex="1" parent="1">
          <mxGeometry x="100" y="330" width="100" height="40" as="geometry" />
        </mxCell>
        <mxCell id="0KsfwF-BBP8w_LCdqewA-29" style="edgeStyle=orthogonalEdgeStyle;rounded=0;orthogonalLoop=1;jettySize=auto;html=1;" edge="1" parent="1" source="0KsfwF-BBP8w_LCdqewA-19" target="0KsfwF-BBP8w_LCdqewA-26">
          <mxGeometry relative="1" as="geometry" />
        </mxCell>
        <mxCell id="0KsfwF-BBP8w_LCdqewA-30" value="N" style="edgeLabel;html=1;align=center;verticalAlign=middle;resizable=0;points=[];" vertex="1" connectable="0" parent="0KsfwF-BBP8w_LCdqewA-29">
          <mxGeometry x="0.1788" y="-2" relative="1" as="geometry">
            <mxPoint x="-7" y="-12" as="offset" />
          </mxGeometry>
        </mxCell>
        <mxCell id="0KsfwF-BBP8w_LCdqewA-56" style="edgeStyle=orthogonalEdgeStyle;rounded=0;orthogonalLoop=1;jettySize=auto;html=1;entryX=1;entryY=0.5;entryDx=0;entryDy=0;" edge="1" parent="1" source="0KsfwF-BBP8w_LCdqewA-19" target="0KsfwF-BBP8w_LCdqewA-41">
          <mxGeometry relative="1" as="geometry" />
        </mxCell>
        <mxCell id="0KsfwF-BBP8w_LCdqewA-58" style="edgeStyle=orthogonalEdgeStyle;rounded=0;orthogonalLoop=1;jettySize=auto;html=1;entryX=1;entryY=0.5;entryDx=0;entryDy=0;" edge="1" parent="1" source="0KsfwF-BBP8w_LCdqewA-19" target="0KsfwF-BBP8w_LCdqewA-43">
          <mxGeometry relative="1" as="geometry" />
        </mxCell>
        <mxCell id="0KsfwF-BBP8w_LCdqewA-19" value="account" style="whiteSpace=wrap;html=1;align=center;" vertex="1" parent="1">
          <mxGeometry x="363.5" y="330" width="100" height="40" as="geometry" />
        </mxCell>
        <mxCell id="0KsfwF-BBP8w_LCdqewA-50" style="edgeStyle=orthogonalEdgeStyle;rounded=0;orthogonalLoop=1;jettySize=auto;html=1;entryX=1;entryY=0.5;entryDx=0;entryDy=0;" edge="1" parent="1" source="0KsfwF-BBP8w_LCdqewA-21" target="0KsfwF-BBP8w_LCdqewA-46">
          <mxGeometry relative="1" as="geometry" />
        </mxCell>
        <mxCell id="0KsfwF-BBP8w_LCdqewA-51" style="edgeStyle=orthogonalEdgeStyle;rounded=0;orthogonalLoop=1;jettySize=auto;html=1;entryX=1;entryY=0.5;entryDx=0;entryDy=0;" edge="1" parent="1" source="0KsfwF-BBP8w_LCdqewA-21" target="0KsfwF-BBP8w_LCdqewA-47">
          <mxGeometry relative="1" as="geometry" />
        </mxCell>
        <mxCell id="0KsfwF-BBP8w_LCdqewA-52" style="edgeStyle=orthogonalEdgeStyle;rounded=0;orthogonalLoop=1;jettySize=auto;html=1;exitX=0.5;exitY=1;exitDx=0;exitDy=0;entryX=1;entryY=0.5;entryDx=0;entryDy=0;" edge="1" parent="1" source="0KsfwF-BBP8w_LCdqewA-21" target="0KsfwF-BBP8w_LCdqewA-48">
          <mxGeometry relative="1" as="geometry" />
        </mxCell>
        <mxCell id="0KsfwF-BBP8w_LCdqewA-53" style="edgeStyle=orthogonalEdgeStyle;rounded=0;orthogonalLoop=1;jettySize=auto;html=1;entryX=1;entryY=0.5;entryDx=0;entryDy=0;" edge="1" parent="1" source="0KsfwF-BBP8w_LCdqewA-21" target="0KsfwF-BBP8w_LCdqewA-49">
          <mxGeometry relative="1" as="geometry" />
        </mxCell>
        <mxCell id="0KsfwF-BBP8w_LCdqewA-21" value="booking" style="whiteSpace=wrap;html=1;align=center;" vertex="1" parent="1">
          <mxGeometry x="700" y="330" width="100" height="40" as="geometry" />
        </mxCell>
        <mxCell id="0KsfwF-BBP8w_LCdqewA-27" style="edgeStyle=orthogonalEdgeStyle;rounded=0;orthogonalLoop=1;jettySize=auto;html=1;" edge="1" parent="1" source="0KsfwF-BBP8w_LCdqewA-26" target="0KsfwF-BBP8w_LCdqewA-21">
          <mxGeometry relative="1" as="geometry" />
        </mxCell>
        <mxCell id="0KsfwF-BBP8w_LCdqewA-33" value="1" style="edgeLabel;html=1;align=center;verticalAlign=middle;resizable=0;points=[];" vertex="1" connectable="0" parent="0KsfwF-BBP8w_LCdqewA-27">
          <mxGeometry x="-0.0733" y="-3" relative="1" as="geometry">
            <mxPoint y="-13" as="offset" />
          </mxGeometry>
        </mxCell>
        <mxCell id="0KsfwF-BBP8w_LCdqewA-26" value="contains" style="shape=rhombus;perimeter=rhombusPerimeter;whiteSpace=wrap;html=1;align=center;" vertex="1" parent="1">
          <mxGeometry x="520" y="320" width="120" height="60" as="geometry" />
        </mxCell>
        <mxCell id="0KsfwF-BBP8w_LCdqewA-37" value="UserID" style="ellipse;whiteSpace=wrap;html=1;align=center;fontStyle=4;" vertex="1" parent="1">
          <mxGeometry x="20" y="470" width="100" height="40" as="geometry" />
        </mxCell>
        <mxCell id="0KsfwF-BBP8w_LCdqewA-39" value="Attribute" style="ellipse;whiteSpace=wrap;html=1;align=center;" vertex="1" parent="1">
          <mxGeometry x="20" y="410" width="100" height="40" as="geometry" />
        </mxCell>
        <mxCell id="0KsfwF-BBP8w_LCdqewA-41" value="Name" style="ellipse;whiteSpace=wrap;html=1;align=center;" vertex="1" parent="1">
          <mxGeometry x="290" y="385" width="100" height="40" as="geometry" />
        </mxCell>
        <mxCell id="0KsfwF-BBP8w_LCdqewA-43" value="AccountID" style="ellipse;whiteSpace=wrap;html=1;align=center;fontStyle=4;" vertex="1" parent="1">
          <mxGeometry x="290" y="500" width="100" height="45" as="geometry" />
        </mxCell>
        <mxCell id="0KsfwF-BBP8w_LCdqewA-46" value="bookingID" style="ellipse;whiteSpace=wrap;html=1;align=center;fontStyle=4;" vertex="1" parent="1">
          <mxGeometry x="610" y="395" width="100" height="40" as="geometry" />
        </mxCell>
        <mxCell id="0KsfwF-BBP8w_LCdqewA-47" value="Date" style="ellipse;whiteSpace=wrap;html=1;align=center;" vertex="1" parent="1">
          <mxGeometry x="610" y="445" width="100" height="40" as="geometry" />
        </mxCell>
        <mxCell id="0KsfwF-BBP8w_LCdqewA-48" value="Description" style="ellipse;whiteSpace=wrap;html=1;align=center;" vertex="1" parent="1">
          <mxGeometry x="610" y="495" width="100" height="40" as="geometry" />
        </mxCell>
        <mxCell id="0KsfwF-BBP8w_LCdqewA-49" value="Amount" style="ellipse;whiteSpace=wrap;html=1;align=center;" vertex="1" parent="1">
          <mxGeometry x="610" y="545" width="100" height="40" as="geometry" />
        </mxCell>
        <mxCell id="0KsfwF-BBP8w_LCdqewA-54" value="Balance" style="ellipse;whiteSpace=wrap;html=1;align=center;" vertex="1" parent="1">
          <mxGeometry x="290" y="445" width="100" height="40" as="geometry" />
        </mxCell>
        <mxCell id="0KsfwF-BBP8w_LCdqewA-57" style="edgeStyle=orthogonalEdgeStyle;rounded=0;orthogonalLoop=1;jettySize=auto;html=1;entryX=1;entryY=0.738;entryDx=0;entryDy=0;entryPerimeter=0;" edge="1" parent="1" source="0KsfwF-BBP8w_LCdqewA-19" target="0KsfwF-BBP8w_LCdqewA-54">
          <mxGeometry relative="1" as="geometry" />
        </mxCell>
      </root>
    </mxGraphModel>
  </diagram>
</mxfile>
